<svg xmlns="http://www.w3.org/2000/svg" viewBox="0 0 251.02 91.64"><defs><style>.cls-1{fill:#fff;}</style></defs><title>Recurso 2</title><g id="Capa_2" data-name="Capa 2"><g id="Capa_1-2" data-name="Capa 1"><path class="cls-1" d="M28.89,44a3,3,0,0,0,.92,2.23,3,3,0,0,0,2.19.89,3.1,3.1,0,0,0,2.29-.89,3.26,3.26,0,0,0,1-2.23V5.6a2.92,2.92,0,0,0-.89-2.2,3.35,3.35,0,0,0-4.52,0,2.85,2.85,0,0,0-1,2.16v16H6.3V5.6a2.9,2.9,0,0,0-.92-2.16,3.05,3.05,0,0,0-2.2-.89,3.1,3.1,0,0,0-2.29.89A3,3,0,0,0,0,5.6V44A3.08,3.08,0,0,0,.86,46.2a3,3,0,0,0,2.26.89,3.16,3.16,0,0,0,2.23-.89A2.92,2.92,0,0,0,6.3,44V27.49H28.89Z"/><path class="cls-1" d="M51.25,45.49a17.31,17.31,0,0,0,17,0,16.18,16.18,0,0,0,6.08-6.17,17.81,17.81,0,0,0,2.23-8.91,18.17,18.17,0,0,0-2.23-9,16.07,16.07,0,0,0-6.08-6.24,17.31,17.31,0,0,0-17,0,16.06,16.06,0,0,0-6.08,6.24,18.16,18.16,0,0,0-2.23,9,17.8,17.8,0,0,0,2.23,8.91A16.17,16.17,0,0,0,51.25,45.49Zm-.83-21.22a10.62,10.62,0,0,1,3.88-4.2,10.65,10.65,0,0,1,10.88,0,10.63,10.63,0,0,1,3.88,4.2,12.93,12.93,0,0,1,1.43,6.14,12.6,12.6,0,0,1-1.43,6,10.67,10.67,0,0,1-3.88,4.17,10.65,10.65,0,0,1-10.88,0,10.66,10.66,0,0,1-3.88-4.17,12.59,12.59,0,0,1-1.43-6A12.92,12.92,0,0,1,50.43,24.27Z"/><path class="cls-1" d="M87,47.09A3,3,0,0,0,90.1,44v-41A3,3,0,0,0,89.24.89,2.84,2.84,0,0,0,87.11,0a3,3,0,0,0-2.16.89,3,3,0,0,0-.89,2.16V44a3,3,0,0,0,.86,2.16A2.84,2.84,0,0,0,87,47.09Z"/><path class="cls-1" d="M102.31,9.23a4.29,4.29,0,0,0,2.61-.64,2.57,2.57,0,0,0,.83-2.16v-1a2.63,2.63,0,0,0-.8-2.13,4,4,0,0,0-2.58-.67,4.45,4.45,0,0,0-2.64.64,2.52,2.52,0,0,0-.86,2.16v1a2.63,2.63,0,0,0,.8,2.13A4.11,4.11,0,0,0,102.31,9.23Z"/><path class="cls-1" d="M102.31,13.43a2.84,2.84,0,0,0-2.13.89,3,3,0,0,0-.86,2.16V44a3,3,0,0,0,.86,2.16,2.84,2.84,0,0,0,2.13.89,2.92,2.92,0,0,0,2.2-.89,3,3,0,0,0,.86-2.16V16.48a3,3,0,0,0-.86-2.16A2.92,2.92,0,0,0,102.31,13.43Z"/><path class="cls-1" d="M119.62,45.49a14.26,14.26,0,0,0,7.83,2.23,12.7,12.7,0,0,0,6.2-1.59,12.86,12.86,0,0,0,4.48-3.88V44a3,3,0,0,0,.83,2.2,2.86,2.86,0,0,0,2.16.86,2.91,2.91,0,0,0,2.19-.89,3,3,0,0,0,.86-2.16v-41A2.94,2.94,0,0,0,141.13,0,2.86,2.86,0,0,0,139,.86a3,3,0,0,0-.83,2.2V18a13.33,13.33,0,0,0-4.64-3.63,14.49,14.49,0,0,0-13.93.83,15.37,15.37,0,0,0-5.5,6.2,19.59,19.59,0,0,0-2,8.94,19.31,19.31,0,0,0,2,8.94A15.58,15.58,0,0,0,119.62,45.49Zm-.41-21.16a10.28,10.28,0,0,1,3.63-4.23,10,10,0,0,1,10.63,0,10.29,10.29,0,0,1,3.63,4.23,13.68,13.68,0,0,1,1.3,6,13.62,13.62,0,0,1-1.3,6,10.33,10.33,0,0,1-3.63,4.2,10,10,0,0,1-10.63,0,10.32,10.32,0,0,1-3.63-4.2,13.6,13.6,0,0,1-1.3-6A13.66,13.66,0,0,1,119.21,24.34Z"/><path class="cls-1" d="M158.66,45.49a14.42,14.42,0,0,0,7.86,2.23,12.71,12.71,0,0,0,6.17-1.56,13.62,13.62,0,0,0,4.52-3.79V44a3,3,0,0,0,.83,2.2,2.86,2.86,0,0,0,2.16.86,2.92,2.92,0,0,0,2.2-.89,3,3,0,0,0,.86-2.16V16.42a3.06,3.06,0,0,0-.86-2.26,3,3,0,0,0-2.2-.86,2.81,2.81,0,0,0-2.16.89,3.15,3.15,0,0,0-.83,2.23v1.53a13,13,0,0,0-4.61-3.56,14.21,14.21,0,0,0-6.27-1.4,14.05,14.05,0,0,0-7.7,2.23,15.37,15.37,0,0,0-5.5,6.2,19.59,19.59,0,0,0-2,8.94,19.58,19.58,0,0,0,2,8.94A15.28,15.28,0,0,0,158.66,45.49Zm-.38-21.19a10.31,10.31,0,0,1,3.63-4.2,9.45,9.45,0,0,1,5.31-1.53,9.32,9.32,0,0,1,5.31,1.56,10.56,10.56,0,0,1,3.63,4.23,13.47,13.47,0,0,1,1.3,6,13.62,13.62,0,0,1-1.3,6,10.32,10.32,0,0,1-3.63,4.2,10,10,0,0,1-10.63,0,10.31,10.31,0,0,1-3.63-4.2,13.6,13.6,0,0,1-1.3-6A13.6,13.6,0,0,1,158.28,24.31Z"/><path class="cls-1" d="M216.28,13.43a2.87,2.87,0,0,0-2.16.86,3,3,0,0,0-.83,2.2V33.91a7.9,7.9,0,0,1-2.35,5.92,8.23,8.23,0,0,1-6,2.29q-3.76,0-5.6-2t-1.84-6.2V16.48a3,3,0,0,0-.86-2.16,2.92,2.92,0,0,0-2.2-.89,2.86,2.86,0,0,0-2.16.86,3,3,0,0,0-.83,2.2v19a12.92,12.92,0,0,0,3,8.84,10.38,10.38,0,0,0,8.24,3.37,14.43,14.43,0,0,0,6.2-1.27,11.62,11.62,0,0,0,4.42-3.56V57.42q0,10.12-9.86,10.12L54.84,72.1v0l1.73-4.85a.82.82,0,0,0-.18-.87h0a.83.83,0,0,0-.59-.24h-1a1.22,1.22,0,0,0-.81.35l-.06.06-4.28,5.13L49,71.55c-2.56-.31-5.65-.52-9-.61V67.48a1.31,1.31,0,0,1,0-.26l2.67-9.42a.83.83,0,0,0-.8-1.08h-2a1.09,1.09,0,0,0-.74.32,1,1,0,0,0-.17.23L37,61H35.57a.9.9,0,0,0-.9.89v1a.9.9,0,0,0,.79.89l-.28.52H33.64a.9.9,0,0,0-.63.26.89.89,0,0,0-.26.63v1a.9.9,0,0,0,.9.9h0l-2,3.68-1.63,0a44.08,44.08,0,0,0-7,.13A9.73,9.73,0,0,0,17.84,73a1.9,1.9,0,0,0-.56.93.84.84,0,0,0,0,.25.88.88,0,0,0,0,.23,1.87,1.87,0,0,0,.56.94A9.71,9.71,0,0,0,23,77.42a44.25,44.25,0,0,0,7,.13l1.61,0,2,3.68h0a.9.9,0,0,0-.89.9v1a.9.9,0,0,0,.26.64.88.88,0,0,0,.63.26h1.53l.28.53a.9.9,0,0,0-.79.89v1a.9.9,0,0,0,.27.64.88.88,0,0,0,.63.26H37l2,3.74a1,1,0,0,0,.18.24,1.08,1.08,0,0,0,.75.32h2a.84.84,0,0,0,.6-.24.82.82,0,0,0,.21-.83l-2.67-9.44a1.49,1.49,0,0,1,0-.26V77.42c3.32-.09,6.4-.3,9-.61l.69-.09,4.26,5.11.08.09a1.22,1.22,0,0,0,.82.34h.94a.83.83,0,0,0,.6-.24.81.81,0,0,0,.19-.87l-1.73-4.86a1.09,1.09,0,0,1,0-.22v0c34.29-.69,147.8-3,148.55-3q7.19,0,11.58-3.95t4.39-11.9V16.48a3,3,0,0,0-.86-2.16A2.92,2.92,0,0,0,216.28,13.43Z"/><path class="cls-1" d="M249.49,32.74a9.78,9.78,0,0,0-3.75-3,35.6,35.6,0,0,0-5.6-1.91,24.6,24.6,0,0,1-5.76-2.1,3.69,3.69,0,0,1-1.94-3.31,3.56,3.56,0,0,1,1.69-3.34,8,8,0,0,1,4.11-1,10.86,10.86,0,0,1,4.3.83,9,9,0,0,1,3.28,2.35,2.39,2.39,0,0,0,1.85.76,2.29,2.29,0,0,0,1.59-.57,2.74,2.74,0,0,0,1-2,2.82,2.82,0,0,0-.76-1.85,11.42,11.42,0,0,0-4.93-3.5A17,17,0,0,0,238.48,13a14.26,14.26,0,0,0-5.89,1.21,10.8,10.8,0,0,0-4.33,3.37,8.15,8.15,0,0,0-1.62,5,8.09,8.09,0,0,0,1.62,5.25,10.62,10.62,0,0,0,4,3.05,40.52,40.52,0,0,0,5.92,2,21.39,21.39,0,0,1,5.5,2.1,3.66,3.66,0,0,1,1.88,3.31,3.62,3.62,0,0,1-1.85,3.4,9,9,0,0,1-4.26,1.11,11.75,11.75,0,0,1-5.25-1.08,13.41,13.41,0,0,1-4.1-3.24,2.92,2.92,0,0,0-2.1-1,2.49,2.49,0,0,0-1.46.45,2.57,2.57,0,0,0-1.34,2.16,3.18,3.18,0,0,0,.57,1.72,13.81,13.81,0,0,0,5.76,4.45,19.31,19.31,0,0,0,7.41,1.4,14.88,14.88,0,0,0,5.89-1.18,11.08,11.08,0,0,0,4.49-3.37A8.17,8.17,0,0,0,251,38,8.43,8.43,0,0,0,249.49,32.74Z"/></g></g></svg>